Biodagar aka Movie Days (1994) - Friðrik Þór Friðriksson
 
http://www.imdb.com/title/tt0109273/

Description:

Movie Days is a comedy set in the early sixties and based on Fridrik Thor Fridrikssons own childhood memories, a time when Icelandic society underwent a period of great turbulence and change. Movie Days er a comedy set in the early sixties and based on Fridrik Thor Fridrikssons own childhood memories, a time when Icelandic society underwent a period of great turbulence and change. At the same time, American movies and television gave the period a special atmosphere, filled with enchantment and romance that distracted many people from the drabness of their everyday existence. Thomas is submerged in and fascinated by the imaginary world of the cinema, but eventually has to come with terms with his own culture and reality. Movie Days is among with Children Of Nature (1991) and Angels of the Universe (2000) a great sample of the good co working between Fridrik Thor and the writer Einar Már Gudmundsson. ENGLISH SUBTITLES


Format/Info : Audio Video Interleave 
File size : 1.22 GiB 
Duration : 1h 22mn 
Writing application : VirtualDubMod 1.5.10.2 (build 2540/release) 
Writing library : VirtualDubMod build 2540/release 

Video 
ID : 0 
Format : MPEG-4 Visual 
Format profile : Advanced Simple@L5 
Format settings, BVOP : Yes 
Format settings, QPel : No 
Format settings, GMC : No warppoints 
Format settings, Matrix : Default (MPEG) 
Codec ID : XVID 
Codec ID/Hint : XviD 
Duration : 1h 22mn 
Bit rate : 1 928 Kbps 
Width : 720 pixels 
Height : 464 pixels 
Display aspect ratio : 1.552 
Frame rate : 25.000 fps 
Color space : YUV 
Chroma subsampling : 4:2:0 
Bit depth : 8 bits 
Scan type : Progressive 
Bits/(Pixel*Frame) : 0.231 
Stream size : 1.11 GiB (91%) 
Writing library : XviD 1.2.1 (UTC 2008-12-04) 

Audio 
ID : 1 
Format : AC-3 
Format/Info : Audio Coding 3 
Mode extension : CM (complete main) 
Codec ID : 2000 
Duration : 1h 22mn 
Bit rate mode : Constant 
Bit rate : 192 Kbps 
Channel(s) : 2 channels 
Channel positions : Front: L R 
Sampling rate : 48.0 KHz 
Stream size : 113 MiB (9%) 
Alignment : Split accross interleaves 
Interleave, duration : 40 ms (1.00 video frame) 
Interleave, preload duration : 500 ms

